<svg xmlns="http://www.w3.org/2000/svg" width="80" height="83"><style/><g id="what we do"><path id="Shape 2" d="M77.96-.01H66.03c-1.12 0-2.02.9-2.02 2.02v4.17H15.86V2.01c0-1.12-.9-2.02-2.02-2.02H2.02C.9-.01 0 .89 0 2.01v12.27c0 1.12.9 2.02 2.02 2.02h11.93c1.12 0 2.02-.9 2.02-2.02v-4.17h22.16c-.22 4.95-12.26 28.24-19.91 41.97-.45.79-.22 1.8.45 2.47 6.86 5.85 8.55 11.59 9 14.52h-2.59c-1.12 0-2.02.9-2.02 2.02v9.9c0 1.13.9 2.03 2.02 2.03h29.93c1.12 0 2.02-.9 2.02-2.03v-9.9c0-1.12-.9-2.02-2.02-2.02h-2.59c.45-2.93 2.14-8.67 9-14.52.67-.56.9-1.68.45-2.47-7.65-13.73-19.69-37.13-19.91-41.97h22.05v4.17c0 1.12.9 2.02 2.02 2.02h11.93c1.12 0 2.02-.9 2.02-2.02V2.01c0-1.12-.9-2.02-2.02-2.02zM11.92 12.25H3.94V3.93h7.98v8.32zm28.13 32.97c1.46 0 2.58 1.12 2.58 2.58 0 1.47-1.12 2.59-2.58 2.59-1.47 0-2.59-1.12-2.59-2.59 0-1.35 1.24-2.58 2.59-2.58zM53.1 78.86H27.11v-5.97H53.1v5.97zm-4.62-9.91H31.61c-.45-3.26-2.14-9.78-9.22-16.42 2.69-4.95 10.79-19.8 15.63-30.83v19.92c-2.59.78-4.5 3.26-4.5 6.18 0 3.6 2.93 6.53 6.53 6.53s6.52-2.93 6.52-6.53c0-2.92-1.91-5.28-4.5-6.18V21.59c4.95 11.03 12.94 25.88 15.64 30.94-7.09 6.64-8.78 13.16-9.23 16.42zm27.56-56.7h-7.98V4.04h7.98v8.21z" fill="#3c3c3c"/></g></svg>