<svg xmlns="http://www.w3.org/2000/svg" width="79" height="76"><style/><g id="what we do"><path id="Shape 3" d="M76.92 76H2.08A2.09 2.09 0 010 73.9V12.98c0-1.16.93-2.1 2.08-2.1h74.84c1.15 0 2.08.94 2.08 2.1V73.9c0 1.16-.93 2.1-2.08 2.1zM4.16 71.8h70.68V15.08H4.16V71.8zm72.76-56.72H2.08A2.09 2.09 0 010 12.98V2.09C0 .93.93-.01 2.08-.01h74.84c1.15 0 2.08.94 2.08 2.1v10.89c0 1.16-.93 2.1-2.08 2.1zm-72.76-4.2h70.68V4.19H4.16v6.69zm5.02-4.81c.8 0 1.45.66 1.45 1.47 0 .81-.65 1.47-1.45 1.47-.8 0-1.45-.66-1.45-1.47 0-.81.65-1.47 1.45-1.47zm4.35 0c.8 0 1.45.66 1.45 1.47 0 .81-.65 1.46-1.45 1.46-.8 0-1.45-.65-1.45-1.46 0-.81.65-1.47 1.45-1.47zm4.35 0a1.47 1.47 0 010 2.94c-.8 0-1.45-.66-1.45-1.47 0-.81.65-1.47 1.45-1.47zm11.16 43.11c-.46 0-.93-.18-1.28-.54l-5.66-5.71c-.71-.72-.71-1.88 0-2.6l5.65-5.71c.71-.71 1.86-.71 2.57 0 .71.72.71 1.88 0 2.6l-4.36 4.41 4.37 4.41c.71.72.71 1.88 0 2.6-.35.36-.82.54-1.29.54zm20.92 0c-.46 0-.93-.18-1.28-.54-.71-.72-.71-1.88 0-2.6l4.36-4.4-4.37-4.42c-.71-.72-.71-1.88 0-2.6.71-.71 1.86-.71 2.57 0l5.66 5.72c.34.34.53.81.53 1.3 0 .48-.19.95-.53 1.29l-5.65 5.71c-.36.36-.82.54-1.29.54zm-13.07 4.24a1.835 1.835 0 01-1.76-2.29l4.62-18.28c.25-.99 1.25-1.58 2.21-1.33.98.25 1.57 1.25 1.32 2.24l-4.63 18.28a1.82 1.82 0 01-1.76 1.38z" fill="#3c3c3c"/></g></svg>