<svg xmlns="http://www.w3.org/2000/svg" width="79" height="91"><style/><g id="what we do"><path id="Shape 4" d="M21.76 38.11c-.41 0-.81-.15-1.11-.45l-3.1-3.08c-.61-.61-.61-1.6 0-2.2.61-.61 1.6-.61 2.22 0l1.99 1.97 5.08-5.05c.62-.61 1.61-.61 2.22 0 .61.61.61 1.59 0 2.2l-6.19 6.16c-.31.3-.71.45-1.11.45zm32.55-3.07H35.64c-.87 0-1.57-.7-1.57-1.56 0-.86.7-1.56 1.57-1.56h18.67c.87 0 1.57.7 1.57 1.56 0 .86-.7 1.56-1.57 1.56zM21.76 64.79c-.41 0-.81-.15-1.11-.45l-3.1-3.08c-.61-.61-.61-1.6 0-2.2.61-.61 1.6-.61 2.22 0l1.99 1.97 5.08-5.05c.62-.61 1.61-.61 2.22 0 .61.61.61 1.6 0 2.2l-6.19 6.16c-.31.3-.71.45-1.11.45zm32.55-3.07H35.64c-.87 0-1.57-.7-1.57-1.56 0-.86.7-1.56 1.57-1.56h18.67c.87 0 1.57.7 1.57 1.56 0 .86-.7 1.56-1.57 1.56zM21.76 78.14c-.41 0-.81-.16-1.11-.46l-3.1-3.08c-.61-.61-.61-1.59 0-2.2.61-.61 1.6-.61 2.22 0l1.99 1.97 5.08-5.05c.62-.61 1.61-.61 2.22 0 .62.61.61 1.6 0 2.21l-6.19 6.15c-.31.3-.71.46-1.11.46zm32.55-3.08H35.64c-.87 0-1.57-.7-1.57-1.56 0-.86.7-1.56 1.57-1.56h18.67c.87 0 1.57.7 1.57 1.56 0 .86-.7 1.56-1.57 1.56zM21.76 51.45c-.41 0-.81-.15-1.11-.45l-3.1-3.08c-.61-.61-.61-1.6 0-2.21.61-.6 1.6-.6 2.22 0l1.99 1.98 5.08-5.05c.62-.61 1.61-.61 2.22 0 .62.61.61 1.59 0 2.2L22.87 51c-.31.3-.71.45-1.11.45zm32.55-3.07H35.64c-.87 0-1.57-.7-1.57-1.56 0-.86.7-1.56 1.57-1.56h18.67c.87 0 1.57.7 1.57 1.56 0 .86-.7 1.56-1.57 1.56zM76.89 11.4H58.42c-.22-3.18-2.89-5.68-6.14-5.68H46.3C46.25 2.57 43.67.01 40.48.01c-3.18 0-5.78 2.56-5.81 5.71h-5.99c-3.24 0-5.91 2.5-6.13 5.68H2.08c-1.16 0-2.09.94-2.09 2.08v75.44c0 1.15.93 2.08 2.09 2.08h74.81c1.16 0 2.09-.93 2.09-2.08V13.48c0-1.14-.93-2.08-2.09-2.08zm-50.18.44c0-1.08.88-1.96 1.97-1.96h6.54c2.01 0 3.64-1.62 3.64-3.61v-.48a1.626 1.626 0 013.25 0v.48c0 1.99 1.63 3.61 3.63 3.61h6.54c1.1 0 1.98.88 1.98 1.96v4.26H26.71v-4.26zm48.09 75H4.17V15.56h18.36v2.62c0 1.15.93 2.08 2.09 2.08h31.73c1.16 0 2.09-.93 2.09-2.08v-2.62h16.35v71.28h.01zm-34.32-76.7c1.11 0 2.01.89 2.01 2a2 2 0 01-2.01 1.99 2 2 0 01-2.01-1.99c0-1.11.9-2 2.01-2z" fill="#3c3c3c"/></g></svg>